<?xml version="1.0" encoding="utf-8"?>
<!-- Generator: Adobe Illustrator 18.1.0, SVG Export Plug-In . SVG Version: 6.00 Build 0)  -->
<svg version="1.1" id="レイヤー_1" xmlns="http://www.w3.org/2000/svg" xmlns:xlink="http://www.w3.org/1999/xlink" x="0px"
	 y="0px" viewBox="106 196 400 400" enable-background="new 106 196 400 400" xml:space="preserve">
<g>
	<path d="M195.5,253.1h124.1c33.8,0,57.9,10,72.2,30.1c8.4,11.9,12.6,25.5,12.6,41c0,18.1-5.1,32.9-15.4,44.5
		c-5.3,6.1-13,11.7-23,16.8c14.7,5.6,25.7,11.9,33,18.9c12.9,12.5,19.3,29.8,19.3,51.8c0,18.5-5.8,35.2-17.5,50.2
		c-17.4,22.4-45.1,33.6-83.1,33.6h-122V253.1z M305,374.4c16.6,0,29.5-2.3,38.7-6.8c14.5-7.2,21.7-20,21.7-38.7
		c0-18.8-7.7-31.4-23.1-37.9c-8.7-3.6-21.6-5.5-38.7-5.5h-70.1v88.9H305z M318.2,506.8c24.1,0,41.2-6.9,51.5-20.7
		c6.4-8.7,9.7-19.3,9.7-31.6c0-20.8-9.4-35-28.2-42.6c-10-4-23.2-6.1-39.6-6.1h-77.9v101H318.2z"/>
</g>
</svg>
