<?xml version="1.0" encoding="utf-8"?>
<!-- Generator: Adobe Illustrator 18.1.0, SVG Export Plug-In . SVG Version: 6.00 Build 0)  -->
<svg version="1.1" id="レイヤー_1" xmlns="http://www.w3.org/2000/svg" xmlns:xlink="http://www.w3.org/1999/xlink" x="0px"
	 y="0px" viewBox="0 0 800 200" enable-background="new 0 0 800 200" xml:space="preserve">
<g>
	<path d="M48.3,109.9c0-37.8,23-60.4,52.2-60.4c14.5,0,25.8,6.9,32.9,14.6l-9.9,11.6c-6-6.1-13.2-10.4-22.7-10.4
		C80.8,65.3,67,82,67,109.2c0,27.5,12.9,44.4,33.4,44.4c10.5,0,18.7-4.7,25.6-12.3l9.8,11.5c-9.3,10.7-21.1,16.7-36,16.7
		C70.6,169.6,48.3,147.8,48.3,109.9z"/>
	<path d="M148.4,109.9c0-37.8,23-60.4,52.2-60.4c14.5,0,25.8,6.9,32.9,14.6l-9.9,11.6c-6-6.1-13.2-10.4-22.7-10.4
		c-20,0-33.8,16.7-33.8,43.9c0,27.5,12.9,44.4,33.4,44.4c10.5,0,18.7-4.7,25.6-12.3l9.8,11.5c-9.3,10.7-21.1,16.7-36,16.7
		C170.7,169.6,148.4,147.8,148.4,109.9z"/>
	<path d="M246.5,152.6l10.7-12.6c8.3,8.3,19.7,13.7,30.8,13.7c14,0,21.9-6.6,21.9-16.4c0-10.5-7.9-13.8-18.6-18.6l-16-6.9
		c-11.2-4.7-23.6-13.5-23.6-30.4c0-18.3,16-31.9,38.1-31.9c13.5,0,26.3,5.7,35.1,14.6l-9.6,11.6c-7.2-6.5-15.3-10.4-25.5-10.4
		c-11.8,0-19.5,5.7-19.5,14.9c0,9.9,9.3,13.7,18.7,17.5l15.9,6.8c13.7,5.8,23.6,14.3,23.6,31.3c0,18.6-15.4,33.7-40.7,33.7
		C271.9,169.6,257.1,163.3,246.5,152.6z"/>
	<path d="M340.6,152.6l10.7-12.6c8.3,8.3,19.7,13.7,30.8,13.7c14,0,21.9-6.6,21.9-16.4c0-10.5-7.9-13.8-18.6-18.6l-16-6.9
		c-11.2-4.7-23.6-13.5-23.6-30.4c0-18.3,16-31.9,38.1-31.9c13.5,0,26.3,5.7,35.1,14.6l-9.6,11.6c-7.2-6.5-15.3-10.4-25.5-10.4
		c-11.8,0-19.5,5.7-19.5,14.9c0,9.9,9.3,13.7,18.7,17.5l15.9,6.8c13.7,5.8,23.6,14.3,23.6,31.3c0,18.6-15.4,33.7-40.7,33.7
		C365.9,169.6,351.1,163.3,340.6,152.6z"/>
	<path d="M438.9,157c0-7.4,5.3-12.9,12.1-12.9c6.8,0,12.1,5.5,12.1,12.9s-5.3,12.6-12.1,12.6C444.3,169.6,438.9,164.4,438.9,157z"/>
	<path d="M478.5,117.6c27.7-24.5,42-42.7,42-58.2c0-10.2-5.5-17.2-15.9-17.2c-7.4,0-13.5,4.7-18.5,10.5l-8.3-8.2
		c8-8.7,16.3-14,28.6-14c17.2,0,28.3,11.2,28.3,28.2c0,18.1-14.4,36.9-34.3,55.9c4.8-0.5,10.7-0.9,15.3-0.9h23.5v12.5h-60.6v-8.6
		H478.5z"/>
	<path d="M550.3,78.9c0-32.5,11.9-48.3,30.4-48.3c18.4,0,30.4,15.9,30.4,48.3c0,32.7-12,49-30.4,49
		C562.2,127.9,550.3,111.5,550.3,78.9z M597,78.9c0-26.9-6.8-36.7-16.3-36.7s-16.3,9.8-16.3,36.7c0,27.2,6.8,37.4,16.3,37.4
		S597,106,597,78.9z"/>
	<path d="M626.7,114.1h20.5V48.8h-16.8v-9.3c8.8-1.7,15.1-3.8,20.4-7.1h11.1v81.8h18.4v12.1h-53.6L626.7,114.1L626.7,114.1z"/>
	<path d="M690.6,115.4l7-9.6c5.4,5.4,12.1,10.1,21.9,10.1c10.6,0,18.6-7.5,18.6-20s-7.1-19.6-17.9-19.6c-6,0-9.6,1.8-15.1,5.4
		L698,77l2.8-44.5h47.6v12.4h-34.8L711.4,69c4-2,7.8-3.3,12.9-3.3c15.7,0,28.6,9.3,28.6,29.8c0,20.8-15.2,32.5-31.6,32.5
		C706.6,127.9,697.3,121.9,690.6,115.4z"/>
	<path d="M480.4,148.7 L750.6,148.7 L750.6,165.2 L480.4,165.2 z"/>
</g>
<polygon points="480.4,148.7 750.6,148.7 751.6,165.2 480.4,165.2 "/>
</svg>
