<?xml version="1.0" encoding="utf-8"?>
<!-- Generator: Adobe Illustrator 18.1.0, SVG Export Plug-In . SVG Version: 6.00 Build 0)  -->
<svg version="1.1" id="レイヤー_1" xmlns="http://www.w3.org/2000/svg" xmlns:xlink="http://www.w3.org/1999/xlink" x="0px"
	 y="0px" viewBox="0 0 800 200" enable-background="new 0 0 800 200" xml:space="preserve">
<g>
	<path d="M48.3,109.9c0-18.9,5.8-34,15.2-44.4s22.5-16,37-16c7.2,0,13.7,1.7,19.2,4.4s10.1,6.3,13.7,10.2l-4.9,5.8l-5,5.8
		c-3-3.1-6.3-5.7-10-7.5c-3.7-1.8-7.9-2.9-12.7-2.9c-10,0-18.4,4.2-24.4,11.8c-6,7.6-9.4,18.5-9.4,32.1c0,13.8,3.2,24.9,9,32.5
		c5.8,7.7,14.1,11.9,24.4,11.9c5.2,0,9.9-1.2,14.2-3.3s8-5.2,11.4-9l4.9,5.8l4.9,5.8c-4.7,5.3-9.9,9.5-15.9,12.4
		c-6,2.8-12.7,4.3-20.1,4.3c-14.6,0.1-27.5-5.4-36.7-15.6C53.9,143.8,48.3,128.9,48.3,109.9z"/>
	<path d="M148.4,109.9c0-18.9,5.8-34,15.1-44.4c9.4-10.4,22.5-16,37.1-16c7.2,0,13.7,1.7,19.2,4.4c5.5,2.7,10.1,6.3,13.7,10.2
		l-4.9,5.8l-4.9,5.8c-3-3.1-6.3-5.7-10-7.5c-3.7-1.8-7.9-2.9-12.7-2.9c-10,0-18.4,4.2-24.4,11.8c-5.9,7.6-9.4,18.6-9.4,32.2
		c0,13.8,3.2,24.9,9,32.5c5.8,7.7,14.1,11.9,24.4,11.9c5.2,0,9.9-1.2,14.1-3.3c4.2-2.1,8-5.2,11.5-9l4.9,5.8l4.9,5.8
		c-4.7,5.3-9.9,9.5-15.9,12.4c-6,2.8-12.6,4.3-20.1,4.3c-14.6,0.1-27.5-5.4-36.7-15.6C154,143.8,148.4,128.9,148.4,109.9z"/>
	<path d="M246.5,152.6l5.4-6.3l5.4-6.3c4.1,4.1,9.1,7.6,14.4,10c5.3,2.4,10.9,3.7,16.4,3.7c7,0,12.5-1.7,16.2-4.5
		c3.7-2.9,5.7-7,5.7-11.9c0-5.2-2-8.7-5.3-11.4s-8-4.8-13.3-7.2l-8-3.5l-8-3.4c-5.6-2.3-11.5-5.7-16-10.6s-7.6-11.3-7.6-19.8
		c0-9.2,4-17.1,10.8-22.8c6.8-5.7,16.3-9.1,27.3-9.1c6.8,0,13.3,1.4,19.3,4c6,2.5,11.4,6.2,15.8,10.6l-4.8,5.8l-4.8,5.8
		c-3.6-3.2-7.4-5.8-11.6-7.6c-4.2-1.8-8.8-2.8-13.9-2.8c-5.9,0-10.8,1.4-14.2,4c-3.4,2.6-5.3,6.3-5.3,10.9c0,4.9,2.3,8.4,5.8,11
		s8.2,4.6,12.9,6.5l8,3.4l7.9,3.4c6.9,2.9,12.8,6.5,16.9,11.5s6.7,11.3,6.7,19.8c0,9.3-3.9,17.7-10.9,23.8c-7,6.1-17.2,9.9-29.8,9.9
		c-8,0.1-15.6-1.5-22.6-4.4C258.1,162.2,251.8,158,246.5,152.6z"/>
	<path d="M340.6,152.6l5.4-6.3l5.4-6.3c4.1,4.1,9.1,7.6,14.4,10c5.3,2.4,10.9,3.7,16.4,3.7c7,0,12.5-1.7,16.2-4.5
		c3.7-2.9,5.7-7,5.7-11.9c0-5.2-2-8.7-5.3-11.4s-8-4.8-13.3-7.2l-8-3.5l-8-3.4c-5.6-2.3-11.5-5.7-16-10.6s-7.6-11.3-7.6-19.8
		c0-9.2,4-17.1,10.8-22.8c6.8-5.7,16.3-9.1,27.3-9.1c6.8,0,13.3,1.4,19.3,4c6,2.5,11.4,6.2,15.8,10.6l-4.8,5.8l-4.8,5.8
		c-3.6-3.2-7.4-5.8-11.6-7.6c-4.2-1.8-8.8-2.8-13.9-2.8c-5.9,0-10.8,1.4-14.2,4c-3.4,2.6-5.3,6.3-5.3,10.9c0,4.9,2.3,8.4,5.8,11
		s8.2,4.6,12.9,6.5l7.9,3.4l8,3.4c6.9,2.9,12.8,6.5,16.9,11.5s6.7,11.3,6.7,19.8c0,9.3-3.9,17.7-10.9,23.8c-7,6.1-17.2,9.9-29.8,9.9
		c-8,0.1-15.7-1.5-22.7-4.4S345.9,158,340.6,152.6z"/>
	<path d="M438.9,157c0-3.7,1.3-6.9,3.5-9.2c2.2-2.3,5.2-3.7,8.6-3.7c3.4,0,6.4,1.4,8.6,3.7c2.2,2.3,3.5,5.5,3.5,9.2
		s-1.3,6.9-3.5,9.1c-2.2,2.2-5.2,3.5-8.6,3.5c-3.4,0-6.4-1.3-8.6-3.5C440.2,163.9,438.9,160.7,438.9,157z"/>
	<path d="M478.5,117.6c13.9-12.2,24.4-22.9,31.4-32.5c7-9.6,10.6-18,10.6-25.7c0-5.1-1.4-9.4-4-12.4c-2.7-3-6.7-4.8-11.9-4.8
		c-3.7,0-7.1,1.2-10.1,3.1c-3.1,1.9-5.9,4.5-8.4,7.4l-4.1-4.1l-4.1-4.1c4-4.4,8.1-7.9,12.7-10.3c4.6-2.4,9.8-3.7,15.9-3.7
		c8.6,0,15.7,2.8,20.6,7.7c4.9,4.9,7.7,12,7.7,20.5c0,9.1-3.6,18.3-9.7,27.6c-6.1,9.3-14.7,18.8-24.6,28.3c2.4-0.2,5.1-0.5,7.7-0.6
		c2.6-0.2,5.3-0.3,7.6-0.3h11.8h11.8v6.2v6.2h-30.3h-30.3v-4.3v-4.3H478.5L478.5,117.6z"/>
	<path d="M550.3,78.9c0-16.2,3-28.3,8.3-36.3s12.9-12,22.1-12c9.2,0,16.8,4,22.1,12c5.3,8,8.3,20.1,8.3,36.3c0,16.3-3,28.6-8.3,36.8
		c-5.3,8.2-12.9,12.2-22.1,12.2c-9.2,0-16.9-4.1-22.1-12.3S550.3,95.2,550.3,78.9z M597,78.9c0-13.5-1.7-22.6-4.6-28.4
		c-2.9-5.8-7-8.3-11.7-8.3s-8.8,2.5-11.7,8.3c-2.9,5.8-4.6,15-4.6,28.4c0,13.6,1.7,23,4.6,28.9c2.9,5.9,7,8.5,11.7,8.5
		s8.8-2.6,11.7-8.5C595.3,101.8,597,92.4,597,78.9z"/>
	<path d="M626.7,114.1H637h10.2V81.4V48.8h-8.4h-8.4v-4.6v-4.7c4.4-0.8,8.2-1.8,11.5-3c3.3-1.1,6.2-2.5,8.9-4.1h5.5h5.5v40.9v40.9
		h9.2h9.2v6v6.1h-26.8h-26.8v-6.1L626.7,114.1L626.7,114.1L626.7,114.1z"/>
	<path d="M690.6,115.4l3.5-4.8l3.5-4.8c2.7,2.7,5.7,5.2,9.3,7.1c3.6,1.9,7.7,3,12.6,3c5.3,0,9.9-1.9,13.3-5.3s5.3-8.4,5.3-14.7
		s-1.8-11.2-4.9-14.5c-3.1-3.3-7.6-5.1-13-5.1c-3,0-5.4,0.4-7.7,1.3s-4.6,2.3-7.4,4.1l-3.5-2.3L698,77l1.4-22.2l1.4-22.2h23.8h23.8
		v6.2v6.2H731h-17.4l-1.1,12l-1.1,12c2-1,4-1.8,6-2.4c2.1-0.6,4.3-0.9,6.9-0.9c7.8,0,15,2.3,20.2,7.2s8.4,12.3,8.4,22.6
		c0,10.4-3.8,18.5-9.7,24.1c-5.8,5.5-13.8,8.4-21.9,8.4c-7.4-0.1-13.4-1.6-18.4-3.9C697.9,121.8,693.9,118.7,690.6,115.4z"/>
	<path d="M480.4,148.7h135.1h135.1v8.2v8.2H615.5H480.4v-8.2V148.7z"/>
</g>
<polygon points="480.4,148.7 615.5,148.7 750.6,148.7 751.1,156.9 751.6,165.2 616,165.2 480.4,165.2 480.4,156.9 "/>
</svg>
